<?xml version="1.0" encoding="UTF-8"?>
<svg id="Layer_2" data-name="Layer 2" xmlns="http://www.w3.org/2000/svg" viewBox="0 0 300 300">
  <defs>
    <style>
      .cls-1 {
        stroke-width: 0px;
      }
    </style>
  </defs>
  <g id="Layer_1-2" data-name="Layer 1">
    <g>
      <path class="cls-1" d="m112.29,140.75c2.63,3.19,6.32,5.79,10.97,7.7,4.58,1.89,9.93,2.85,15.93,2.85,11.63,0,21.15-4.07,28.33-12.1l8.43,10.42h25.4l-22.45-26.22c.43-.96.84-1.9,1.23-2.84.59-1.42,1.16-3.05,1.7-4.86.51-1.73.93-3.12,1.26-4.19.34-1.1.8-2.83,1.37-5.18.55-2.26.97-3.9,1.25-4.92l.82-3.01h-18.45l-.45,1.81c-.29,1.15-.6,2.54-.93,4.16-.29,1.42-.59,2.7-.87,3.85l-10.83-13.52c11.5-7.11,17.33-15.96,17.33-26.34,0-7.58-2.84-13.6-8.44-17.89-5.41-4.15-12.11-6.25-19.91-6.25s-14.12,2.34-19.09,6.95c-5.02,4.66-7.57,10.39-7.57,17.05,0,3.61.78,7.12,2.31,10.37,1.07,2.41,3.58,6.16,7.66,11.44-6.52,3.54-11.78,7.51-15.67,11.83-4.6,5.11-6.93,11.4-6.93,18.72,0,3.55.64,7.07,1.9,10.45,1.26,3.37,3.19,6.65,5.73,9.74Zm40.8-72.26c0,1.99-.55,3.83-1.67,5.61-1.21,1.92-2.45,3.4-3.69,4.4-1.05.85-2.48,1.89-4.25,3.09-1.26-1.59-2.25-2.91-2.97-3.93-.9-1.28-1.76-2.86-2.58-4.72-.75-1.69-1.13-3.28-1.13-4.72,0-2.36.73-4.1,2.21-5.32,1.64-1.34,3.53-1.99,5.79-1.99,2.55,0,4.52.74,6.04,2.25,1.51,1.51,2.25,3.26,2.25,5.34Zm-14.5,35.07l17.2,21.5c-2.37,2.86-4.59,4.97-6.6,6.29-2.17,1.42-5.35,2.14-9.44,2.14s-7.26-1.23-10.15-3.77c-2.81-2.45-4.17-5.44-4.17-9.16,0-3.99,1.17-7.18,3.57-9.74,2.3-2.46,5.53-4.9,9.6-7.27Z"/>
      <path class="cls-1" d="m117.15,192.89c-3.91-.93-6.77-1.63-8.59-2.09-1.7-.44-3.62-1.11-5.7-1.99-2.23-.95-3.21-1.85-3.64-2.45-.59-.8-.87-1.76-.87-2.94,0-1.77.81-3.19,2.55-4.47,1.93-1.43,4.18-2.13,6.86-2.13,3.06,0,5.63.79,7.86,2.42,2.11,1.54,3.36,3.81,3.83,6.93l.3,2.03h20.14l-.29-2.64c-.91-8.3-4.29-14.77-10.03-19.24-5.64-4.38-12.89-6.6-21.53-6.6-8.17,0-15.27,2.24-21.09,6.66-6.03,4.57-9.08,10.55-9.08,17.76,0,11.88,8.46,19.84,25.28,23.68.52.09,1.3.27,2.38.53,5.75,1.35,9.81,2.64,12.05,3.85,1.66.9,2.4,2.24,2.4,4.36,0,2.35-.87,3.98-2.73,5.13-2.18,1.35-4.94,2.03-8.22,2.03-7.26,0-11.2-3.08-12.4-9.69l-.36-1.96h-20.74l.24,2.6c.81,8.84,4.44,15.54,10.78,19.92,6.13,4.24,13.6,6.39,22.2,6.39s16.39-2.22,22.57-6.61c6.44-4.58,9.71-10.85,9.71-18.65,0-11.6-8.04-19.28-23.87-22.81Z"/>
      <path class="cls-1" d="m187.73,159.7c-11.46,0-21.05,3.83-28.5,11.38-7.44,7.54-11.22,17.41-11.22,29.32s3.78,21.77,11.22,29.26c7.45,7.5,17.03,11.3,28.5,11.3s21.05-3.8,28.5-11.3c7.44-7.49,11.22-17.34,11.22-29.26s-3.77-21.78-11.21-29.32c-7.45-7.55-17.04-11.38-28.51-11.38Zm-13.21,24.29c3.58-4.17,7.91-6.19,13.21-6.19s9.74,2.02,13.28,6.18c3.58,4.22,5.4,9.74,5.4,16.43s-1.82,12.21-5.4,16.43c-3.54,4.16-7.88,6.18-13.28,6.18s-9.74-2.02-13.27-6.18c-3.58-4.21-5.4-9.74-5.4-16.43s1.79-12.14,5.46-16.41Z"/>
      <path class="cls-1" d="m150,0C67.29,0,0,67.29,0,150s67.29,150,150,150,150-67.29,150-150S232.71,0,150,0Zm132.24,150c0,72.92-59.32,132.24-132.24,132.24S17.76,222.91,17.76,150,77.08,17.76,150,17.76s132.24,59.32,132.24,132.24Z"/>
    </g>
  </g>
</svg>