<?xml version="1.0" encoding="utf-8"?>
<!-- Generator: Adobe Illustrator 27.9.0, SVG Export Plug-In . SVG Version: 6.00 Build 0)  -->
<svg version="1.1" id="Layer_2_00000026867055307773738280000009235890899250323089_"
	 xmlns="http://www.w3.org/2000/svg" xmlns:xlink="http://www.w3.org/1999/xlink" x="0px" y="0px" viewBox="0 0 300 300"
	 style="enable-background:new 0 0 300 300;" xml:space="preserve">
<style type="text/css">
	.st0{fill:#FFFFFF;}
</style>
<g id="Layer_1-2">
	<g>
		<path class="st0" d="M112.3,140.8c2.6,3.2,6.3,5.8,11,7.7c4.6,1.9,9.9,2.9,15.9,2.9c11.6,0,21.1-4.1,28.3-12.1l8.4,10.4h25.4
			l-22.4-26.2c0.4-1,0.8-1.9,1.2-2.8c0.6-1.4,1.2-3.1,1.7-4.9c0.5-1.7,0.9-3.1,1.3-4.2c0.3-1.1,0.8-2.8,1.4-5.2
			c0.6-2.3,1-3.9,1.2-4.9l0.8-3h-18.4l-0.4,1.8c-0.3,1.2-0.6,2.5-0.9,4.2c-0.3,1.4-0.6,2.7-0.9,3.8L155,94.7
			c11.5-7.1,17.3-16,17.3-26.3c0-7.6-2.8-13.6-8.4-17.9c-5.4-4.2-12.1-6.2-19.9-6.2s-14.1,2.3-19.1,7c-5,4.7-7.6,10.4-7.6,17
			c0,3.6,0.8,7.1,2.3,10.4c1.1,2.4,3.6,6.2,7.7,11.4c-6.5,3.5-11.8,7.5-15.7,11.8c-4.6,5.1-6.9,11.4-6.9,18.7
			c0,3.6,0.6,7.1,1.9,10.5C107.9,134.4,109.8,137.7,112.3,140.8L112.3,140.8z M153.1,68.5c0,2-0.6,3.8-1.7,5.6
			c-1.2,1.9-2.4,3.4-3.7,4.4c-1.1,0.8-2.5,1.9-4.2,3.1c-1.3-1.6-2.2-2.9-3-3.9c-0.9-1.3-1.8-2.9-2.6-4.7c-0.8-1.7-1.1-3.3-1.1-4.7
			c0-2.4,0.7-4.1,2.2-5.3c1.6-1.3,3.5-2,5.8-2c2.6,0,4.5,0.7,6,2.2C152.3,64.7,153.1,66.4,153.1,68.5L153.1,68.5z M138.6,103.6
			l17.2,21.5c-2.4,2.9-4.6,5-6.6,6.3c-2.2,1.4-5.4,2.1-9.4,2.1s-7.3-1.2-10.1-3.8c-2.8-2.4-4.2-5.4-4.2-9.2c0-4,1.2-7.2,3.6-9.7
			C131.3,108.4,134.5,105.9,138.6,103.6L138.6,103.6z"/>
		<path class="st0" d="M117.2,192.9c-3.9-0.9-6.8-1.6-8.6-2.1c-1.7-0.4-3.6-1.1-5.7-2c-2.2-0.9-3.2-1.9-3.6-2.4
			c-0.6-0.8-0.9-1.8-0.9-2.9c0-1.8,0.8-3.2,2.6-4.5c1.9-1.4,4.2-2.1,6.9-2.1c3.1,0,5.6,0.8,7.9,2.4c2.1,1.5,3.4,3.8,3.8,6.9l0.3,2
			h20.1l-0.3-2.6c-0.9-8.3-4.3-14.8-10-19.2c-5.6-4.4-12.9-6.6-21.5-6.6c-8.2,0-15.3,2.2-21.1,6.7c-6,4.6-9.1,10.6-9.1,17.8
			c0,11.9,8.5,19.8,25.3,23.7c0.5,0.1,1.3,0.3,2.4,0.5c5.8,1.4,9.8,2.6,12.1,3.9c1.7,0.9,2.4,2.2,2.4,4.4c0,2.4-0.9,4-2.7,5.1
			c-2.2,1.4-4.9,2-8.2,2c-7.3,0-11.2-3.1-12.4-9.7l-0.4-2H75.5l0.2,2.6c0.8,8.8,4.4,15.5,10.8,19.9c6.1,4.2,13.6,6.4,22.2,6.4
			s16.4-2.2,22.6-6.6c6.4-4.6,9.7-10.9,9.7-18.6C141,204.1,133,196.4,117.2,192.9L117.2,192.9z"/>
		<path class="st0" d="M187.7,159.7c-11.5,0-21.1,3.8-28.5,11.4c-7.4,7.5-11.2,17.4-11.2,29.3s3.8,21.8,11.2,29.3
			c7.4,7.5,17,11.3,28.5,11.3s21.1-3.8,28.5-11.3c7.4-7.5,11.2-17.3,11.2-29.3s-3.8-21.8-11.2-29.3
			C208.8,163.5,199.2,159.7,187.7,159.7L187.7,159.7z M174.5,184c3.6-4.2,7.9-6.2,13.2-6.2s9.7,2,13.3,6.2c3.6,4.2,5.4,9.7,5.4,16.4
			s-1.8,12.2-5.4,16.4c-3.5,4.2-7.9,6.2-13.3,6.2s-9.7-2-13.3-6.2c-3.6-4.2-5.4-9.7-5.4-16.4S170.8,188.3,174.5,184L174.5,184z"/>
		<path class="st0" d="M150,0C67.3,0,0,67.3,0,150s67.3,150,150,150s150-67.3,150-150S232.7,0,150,0z M282.2,150
			c0,72.9-59.3,132.2-132.2,132.2S17.8,222.9,17.8,150S77.1,17.8,150,17.8S282.2,77.1,282.2,150z"/>
	</g>
</g>
</svg>
